<?xml version="1.0" encoding="UTF-8" standalone="no"?>
<!DOCTYPE svg PUBLIC "-//W3C//DTD SVG 1.1//EN"
 "http://www.w3.org/Graphics/SVG/1.1/DTD/svg11.dtd">
<!-- Generated by graphviz version 2.47.0 (20210316.0004)
 -->
<!-- Title: dependencies Pages: 1 -->
<svg width="1288pt" height="284pt"
 viewBox="0.00 0.00 1288.00 284.00" xmlns="http://www.w3.org/2000/svg" xmlns:xlink="http://www.w3.org/1999/xlink">
<g id="graph0" class="graph" transform="scale(1 1) rotate(0) translate(4 280)">
<title>dependencies</title>
<polygon fill="white" stroke="transparent" points="-4,4 -4,-280 1284,-280 1284,4 -4,4"/>
<text text-anchor="start" x="619.01" y="-42.4" font-family="sans-serif" font-weight="bold" font-size="14.00">Legend</text>
<polygon fill="#ffffb3" stroke="transparent" points="406,-10 406,-30 426,-30 426,-10 406,-10"/>
<text text-anchor="start" x="429.63" y="-15.4" font-family="sans-serif" font-size="14.00"> &#160;Declarations</text>
<polygon fill="#8dd3c7" stroke="transparent" points="519,-10 519,-30 539,-30 539,-10 519,-10"/>
<text text-anchor="start" x="542.73" y="-15.4" font-family="sans-serif" font-size="14.00"> &#160;Module</text>
<polygon fill="#80b1d3" stroke="transparent" points="605,-10 605,-30 625,-30 625,-10 605,-10"/>
<text text-anchor="start" x="628.78" y="-15.4" font-family="sans-serif" font-size="14.00"> &#160;Bootstrap</text>
<polygon fill="#fdb462" stroke="transparent" points="702,-10 702,-30 722,-30 722,-10 702,-10"/>
<text text-anchor="start" x="725.67" y="-15.4" font-family="sans-serif" font-size="14.00"> &#160;Providers</text>
<polygon fill="#fb8072" stroke="transparent" points="798,-10 798,-30 818,-30 818,-10 798,-10"/>
<text text-anchor="start" x="821.73" y="-15.4" font-family="sans-serif" font-size="14.00"> &#160;Exports</text>
<g id="clust1" class="cluster">
<title>cluster_AppModule</title>
<polygon fill="none" stroke="black" stroke-dasharray="1,5" points="8,-70 8,-268 1272,-268 1272,-70 8,-70"/>
</g>
<g id="clust2" class="cluster">
<title>cluster_AppModule_declarations</title>
<polygon fill="none" stroke="black" points="168,-78 168,-130 1264,-130 1264,-78 168,-78"/>
</g>
<g id="clust10" class="cluster">
<title>cluster_AppModule_imports</title>
<polygon fill="none" stroke="black" points="16,-78 16,-130 160,-130 160,-78 16,-78"/>
</g>
<g id="clust12" class="cluster">
<title>cluster_AppModule_bootstrap</title>
<polygon fill="none" stroke="black" points="572,-208 572,-260 696,-260 696,-208 572,-208"/>
</g>
<!-- AppComponent -->
<g id="node1" class="node">
<title>AppComponent</title>
<polygon fill="#ffffb3" stroke="black" points="1255.94,-122 1150.06,-122 1150.06,-86 1255.94,-86 1255.94,-122"/>
<text text-anchor="middle" x="1203" y="-99.8" font-family="Times,serif" font-size="14.00">AppComponent</text>
</g>
<!-- AppModule -->
<g id="node8" class="node">
<title>AppModule</title>
<polygon fill="#8dd3c7" stroke="black" points="675.66,-187 672.66,-191 651.66,-191 648.66,-187 592.34,-187 592.34,-151 675.66,-151 675.66,-187"/>
<text text-anchor="middle" x="634" y="-164.8" font-family="Times,serif" font-size="14.00">AppModule</text>
</g>
<!-- AppComponent&#45;&gt;AppModule -->
<g id="edge1" class="edge">
<title>AppComponent&#45;&gt;AppModule</title>
<path fill="none" stroke="black" d="M1203,-122.29C1203,-144.21 1203,-178 1203,-178 1203,-178 685.84,-178 685.84,-178"/>
<polygon fill="black" stroke="black" points="685.84,-174.5 675.84,-178 685.84,-181.5 685.84,-174.5"/>
</g>
<!-- CountryListComponent -->
<g id="node2" class="node">
<title>CountryListComponent</title>
<polygon fill="#ffffb3" stroke="black" points="1132.5,-122 983.5,-122 983.5,-86 1132.5,-86 1132.5,-122"/>
<text text-anchor="middle" x="1058" y="-99.8" font-family="Times,serif" font-size="14.00">CountryListComponent</text>
</g>
<!-- CountryListComponent&#45;&gt;AppModule -->
<g id="edge2" class="edge">
<title>CountryListComponent&#45;&gt;AppModule</title>
<path fill="none" stroke="black" d="M1058,-122.11C1058,-141.34 1058,-169 1058,-169 1058,-169 685.82,-169 685.82,-169"/>
<polygon fill="black" stroke="black" points="685.82,-165.5 675.82,-169 685.82,-172.5 685.82,-165.5"/>
</g>
<!-- CountryListDetailComponent -->
<g id="node3" class="node">
<title>CountryListDetailComponent</title>
<polygon fill="#ffffb3" stroke="black" points="965.71,-122 782.29,-122 782.29,-86 965.71,-86 965.71,-122"/>
<text text-anchor="middle" x="874" y="-99.8" font-family="Times,serif" font-size="14.00">CountryListDetailComponent</text>
</g>
<!-- CountryListDetailComponent&#45;&gt;AppModule -->
<g id="edge3" class="edge">
<title>CountryListDetailComponent&#45;&gt;AppModule</title>
<path fill="none" stroke="black" d="M874,-122.03C874,-138.4 874,-160 874,-160 874,-160 685.8,-160 685.8,-160"/>
<polygon fill="black" stroke="black" points="685.8,-156.5 675.8,-160 685.8,-163.5 685.8,-156.5"/>
</g>
<!-- FooterComponent -->
<g id="node4" class="node">
<title>FooterComponent</title>
<polygon fill="#ffffb3" stroke="black" points="763.88,-122 646.12,-122 646.12,-86 763.88,-86 763.88,-122"/>
<text text-anchor="middle" x="705" y="-99.8" font-family="Times,serif" font-size="14.00">FooterComponent</text>
</g>
<!-- FooterComponent&#45;&gt;AppModule -->
<g id="edge4" class="edge">
<title>FooterComponent&#45;&gt;AppModule</title>
<path fill="none" stroke="black" d="M660.94,-122.11C660.94,-122.11 660.94,-140.99 660.94,-140.99"/>
<polygon fill="black" stroke="black" points="657.44,-140.99 660.94,-150.99 664.44,-140.99 657.44,-140.99"/>
</g>
<!-- ForecastComponent -->
<g id="node5" class="node">
<title>ForecastComponent</title>
<polygon fill="#ffffb3" stroke="black" points="628.25,-122 499.75,-122 499.75,-86 628.25,-86 628.25,-122"/>
<text text-anchor="middle" x="564" y="-99.8" font-family="Times,serif" font-size="14.00">ForecastComponent</text>
</g>
<!-- ForecastComponent&#45;&gt;AppModule -->
<g id="edge5" class="edge">
<title>ForecastComponent&#45;&gt;AppModule</title>
<path fill="none" stroke="black" d="M610.27,-122.11C610.27,-122.11 610.27,-140.99 610.27,-140.99"/>
<polygon fill="black" stroke="black" points="606.77,-140.99 610.27,-150.99 613.77,-140.99 606.77,-140.99"/>
</g>
<!-- HeaderComponent -->
<g id="node6" class="node">
<title>HeaderComponent</title>
<polygon fill="#ffffb3" stroke="black" points="481.74,-122 360.26,-122 360.26,-86 481.74,-86 481.74,-122"/>
<text text-anchor="middle" x="421" y="-99.8" font-family="Times,serif" font-size="14.00">HeaderComponent</text>
</g>
<!-- HeaderComponent&#45;&gt;AppModule -->
<g id="edge6" class="edge">
<title>HeaderComponent&#45;&gt;AppModule</title>
<path fill="none" stroke="black" d="M421,-122.03C421,-138.4 421,-160 421,-160 421,-160 582.17,-160 582.17,-160"/>
<polygon fill="black" stroke="black" points="582.17,-163.5 592.17,-160 582.17,-156.5 582.17,-163.5"/>
</g>
<!-- PageNotFoundComponent -->
<g id="node7" class="node">
<title>PageNotFoundComponent</title>
<polygon fill="#ffffb3" stroke="black" points="341.82,-122 176.18,-122 176.18,-86 341.82,-86 341.82,-122"/>
<text text-anchor="middle" x="259" y="-99.8" font-family="Times,serif" font-size="14.00">PageNotFoundComponent</text>
</g>
<!-- PageNotFoundComponent&#45;&gt;AppModule -->
<g id="edge7" class="edge">
<title>PageNotFoundComponent&#45;&gt;AppModule</title>
<path fill="none" stroke="black" d="M259,-122.11C259,-141.34 259,-169 259,-169 259,-169 582.07,-169 582.07,-169"/>
<polygon fill="black" stroke="black" points="582.07,-172.5 592.07,-169 582.07,-165.5 582.07,-172.5"/>
</g>
<!-- AppComponent  -->
<g id="node10" class="node">
<title>AppComponent </title>
<polygon fill="#80b1d3" stroke="black" points="688.44,-252 579.56,-252 579.56,-216 688.44,-216 688.44,-252"/>
<text text-anchor="middle" x="634" y="-229.8" font-family="Times,serif" font-size="14.00">AppComponent </text>
</g>
<!-- AppModule&#45;&gt;AppComponent  -->
<g id="edge9" class="edge">
<title>AppModule&#45;&gt;AppComponent </title>
<path fill="none" stroke="black" stroke-dasharray="1,5" d="M634,-187.11C634,-187.11 634,-205.99 634,-205.99"/>
<polygon fill="black" stroke="black" points="630.5,-205.99 634,-215.99 637.5,-205.99 630.5,-205.99"/>
</g>
<!-- AppRoutingModule -->
<g id="node9" class="node">
<title>AppRoutingModule</title>
<polygon fill="#8dd3c7" stroke="black" points="152.27,-122 149.27,-126 128.27,-126 125.27,-122 23.73,-122 23.73,-86 152.27,-86 152.27,-122"/>
<text text-anchor="middle" x="88" y="-99.8" font-family="Times,serif" font-size="14.00">AppRoutingModule</text>
</g>
<!-- AppRoutingModule&#45;&gt;AppModule -->
<g id="edge8" class="edge">
<title>AppRoutingModule&#45;&gt;AppModule</title>
<path fill="none" stroke="black" d="M88,-122.29C88,-144.21 88,-178 88,-178 88,-178 582.06,-178 582.06,-178"/>
<polygon fill="black" stroke="black" points="582.06,-181.5 592.06,-178 582.06,-174.5 582.06,-181.5"/>
</g>
</g>
</svg>
