<?xml version="1.0" encoding="UTF-8" standalone="no"?>
<!DOCTYPE svg PUBLIC "-//W3C//DTD SVG 1.1//EN"
 "http://www.w3.org/Graphics/SVG/1.1/DTD/svg11.dtd">
<!-- Generated by graphviz version 2.47.0 (20210316.0004)
 -->
<!-- Title: dependencies Pages: 1 -->
<svg width="1288pt" height="284pt"
 viewBox="0.00 0.00 1288.00 284.00" xmlns="http://www.w3.org/2000/svg" xmlns:xlink="http://www.w3.org/1999/xlink">
<g id="graph0" class="graph" transform="scale(1 1) rotate(0) translate(4 280)">
<title>dependencies</title>
<polygon fill="white" stroke="transparent" points="-4,4 -4,-280 1284,-280 1284,4 -4,4"/>
<text text-anchor="start" x="619.01" y="-42.4" font-family="sans-serif" font-weight="bold" font-size="14.00">Legend</text>
<polygon fill="#ffffb3" stroke="transparent" points="406,-10 406,-30 426,-30 426,-10 406,-10"/>
<text text-anchor="start" x="429.63" y="-15.4" font-family="sans-serif" font-size="14.00"> &#160;Declarations</text>
<polygon fill="#8dd3c7" stroke="transparent" points="519,-10 519,-30 539,-30 539,-10 519,-10"/>
<text text-anchor="start" x="542.73" y="-15.4" font-family="sans-serif" font-size="14.00"> &#160;Module</text>
<polygon fill="#80b1d3" stroke="transparent" points="605,-10 605,-30 625,-30 625,-10 605,-10"/>
<text text-anchor="start" x="628.78" y="-15.4" font-family="sans-serif" font-size="14.00"> &#160;Bootstrap</text>
<polygon fill="#fdb462" stroke="transparent" points="702,-10 702,-30 722,-30 722,-10 702,-10"/>
<text text-anchor="start" x="725.67" y="-15.4" font-family="sans-serif" font-size="14.00"> &#160;Providers</text>
<polygon fill="#fb8072" stroke="transparent" points="798,-10 798,-30 818,-30 818,-10 798,-10"/>
<text text-anchor="start" x="821.73" y="-15.4" font-family="sans-serif" font-size="14.00"> &#160;Exports</text>
<g id="clust1" class="cluster">
<title>cluster_AppModule</title>
<polygon fill="none" stroke="black" stroke-dasharray="1,5" points="8,-70 8,-268 1272,-268 1272,-70 8,-70"/>
</g>
<g id="clust10" class="cluster">
<title>cluster_AppModule_imports</title>
<polygon fill="none" stroke="black" points="1120,-78 1120,-130 1264,-130 1264,-78 1120,-78"/>
</g>
<g id="clust12" class="cluster">
<title>cluster_AppModule_bootstrap</title>
<polygon fill="none" stroke="black" points="575,-208 575,-260 699,-260 699,-208 575,-208"/>
</g>
<g id="clust2" class="cluster">
<title>cluster_AppModule_declarations</title>
<polygon fill="none" stroke="black" points="16,-78 16,-130 1112,-130 1112,-78 16,-78"/>
</g>
<!-- AppComponent -->
<g id="node1" class="node">
<title>AppComponent</title>
<polygon fill="#ffffb3" stroke="black" points="1103.94,-122 998.06,-122 998.06,-86 1103.94,-86 1103.94,-122"/>
<text text-anchor="middle" x="1051" y="-99.8" font-family="Times,serif" font-size="14.00">AppComponent</text>
</g>
<!-- AppModule -->
<g id="node8" class="node">
<title>AppModule</title>
<polygon fill="#8dd3c7" stroke="black" points="678.66,-187 675.66,-191 654.66,-191 651.66,-187 595.34,-187 595.34,-151 678.66,-151 678.66,-187"/>
<text text-anchor="middle" x="637" y="-164.8" font-family="Times,serif" font-size="14.00">AppModule</text>
</g>
<!-- AppComponent&#45;&gt;AppModule -->
<g id="edge1" class="edge">
<title>AppComponent&#45;&gt;AppModule</title>
<path fill="none" stroke="black" d="M1051,-122.11C1051,-141.34 1051,-169 1051,-169 1051,-169 688.97,-169 688.97,-169"/>
<polygon fill="black" stroke="black" points="688.97,-165.5 678.97,-169 688.97,-172.5 688.97,-165.5"/>
</g>
<!-- CountryListComponent -->
<g id="node2" class="node">
<title>CountryListComponent</title>
<polygon fill="#ffffb3" stroke="black" points="980.5,-122 831.5,-122 831.5,-86 980.5,-86 980.5,-122"/>
<text text-anchor="middle" x="906" y="-99.8" font-family="Times,serif" font-size="14.00">CountryListComponent</text>
</g>
<!-- CountryListComponent&#45;&gt;AppModule -->
<g id="edge2" class="edge">
<title>CountryListComponent&#45;&gt;AppModule</title>
<path fill="none" stroke="black" d="M906,-122.03C906,-138.4 906,-160 906,-160 906,-160 688.74,-160 688.74,-160"/>
<polygon fill="black" stroke="black" points="688.74,-156.5 678.74,-160 688.74,-163.5 688.74,-156.5"/>
</g>
<!-- CountryListDetailComponent -->
<g id="node3" class="node">
<title>CountryListDetailComponent</title>
<polygon fill="#ffffb3" stroke="black" points="813.71,-122 630.29,-122 630.29,-86 813.71,-86 813.71,-122"/>
<text text-anchor="middle" x="722" y="-99.8" font-family="Times,serif" font-size="14.00">CountryListDetailComponent</text>
</g>
<!-- CountryListDetailComponent&#45;&gt;AppModule -->
<g id="edge3" class="edge">
<title>CountryListDetailComponent&#45;&gt;AppModule</title>
<path fill="none" stroke="black" d="M654.61,-122.11C654.61,-122.11 654.61,-140.99 654.61,-140.99"/>
<polygon fill="black" stroke="black" points="651.11,-140.99 654.61,-150.99 658.11,-140.99 651.11,-140.99"/>
</g>
<!-- FooterComponent -->
<g id="node4" class="node">
<title>FooterComponent</title>
<polygon fill="#ffffb3" stroke="black" points="611.88,-122 494.12,-122 494.12,-86 611.88,-86 611.88,-122"/>
<text text-anchor="middle" x="553" y="-99.8" font-family="Times,serif" font-size="14.00">FooterComponent</text>
</g>
<!-- FooterComponent&#45;&gt;AppModule -->
<g id="edge4" class="edge">
<title>FooterComponent&#45;&gt;AppModule</title>
<path fill="none" stroke="black" d="M603.56,-122.11C603.56,-122.11 603.56,-140.99 603.56,-140.99"/>
<polygon fill="black" stroke="black" points="600.06,-140.99 603.56,-150.99 607.06,-140.99 600.06,-140.99"/>
</g>
<!-- ForecastComponent -->
<g id="node5" class="node">
<title>ForecastComponent</title>
<polygon fill="#ffffb3" stroke="black" points="476.25,-122 347.75,-122 347.75,-86 476.25,-86 476.25,-122"/>
<text text-anchor="middle" x="412" y="-99.8" font-family="Times,serif" font-size="14.00">ForecastComponent</text>
</g>
<!-- ForecastComponent&#45;&gt;AppModule -->
<g id="edge5" class="edge">
<title>ForecastComponent&#45;&gt;AppModule</title>
<path fill="none" stroke="black" d="M412,-122.03C412,-138.4 412,-160 412,-160 412,-160 585.21,-160 585.21,-160"/>
<polygon fill="black" stroke="black" points="585.21,-163.5 595.21,-160 585.21,-156.5 585.21,-163.5"/>
</g>
<!-- HeaderComponent -->
<g id="node6" class="node">
<title>HeaderComponent</title>
<polygon fill="#ffffb3" stroke="black" points="329.74,-122 208.26,-122 208.26,-86 329.74,-86 329.74,-122"/>
<text text-anchor="middle" x="269" y="-99.8" font-family="Times,serif" font-size="14.00">HeaderComponent</text>
</g>
<!-- HeaderComponent&#45;&gt;AppModule -->
<g id="edge6" class="edge">
<title>HeaderComponent&#45;&gt;AppModule</title>
<path fill="none" stroke="black" d="M269,-122.11C269,-141.34 269,-169 269,-169 269,-169 585.14,-169 585.14,-169"/>
<polygon fill="black" stroke="black" points="585.14,-172.5 595.14,-169 585.14,-165.5 585.14,-172.5"/>
</g>
<!-- PageNotFoundComponent -->
<g id="node7" class="node">
<title>PageNotFoundComponent</title>
<polygon fill="#ffffb3" stroke="black" points="189.82,-122 24.18,-122 24.18,-86 189.82,-86 189.82,-122"/>
<text text-anchor="middle" x="107" y="-99.8" font-family="Times,serif" font-size="14.00">PageNotFoundComponent</text>
</g>
<!-- PageNotFoundComponent&#45;&gt;AppModule -->
<g id="edge7" class="edge">
<title>PageNotFoundComponent&#45;&gt;AppModule</title>
<path fill="none" stroke="black" d="M107,-122.29C107,-144.21 107,-178 107,-178 107,-178 584.97,-178 584.97,-178"/>
<polygon fill="black" stroke="black" points="584.97,-181.5 594.97,-178 584.97,-174.5 584.97,-181.5"/>
</g>
<!-- AppComponent  -->
<g id="node10" class="node">
<title>AppComponent </title>
<polygon fill="#80b1d3" stroke="black" points="691.44,-252 582.56,-252 582.56,-216 691.44,-216 691.44,-252"/>
<text text-anchor="middle" x="637" y="-229.8" font-family="Times,serif" font-size="14.00">AppComponent </text>
</g>
<!-- AppModule&#45;&gt;AppComponent  -->
<g id="edge9" class="edge">
<title>AppModule&#45;&gt;AppComponent </title>
<path fill="none" stroke="black" stroke-dasharray="1,5" d="M637,-187.11C637,-187.11 637,-205.99 637,-205.99"/>
<polygon fill="black" stroke="black" points="633.5,-205.99 637,-215.99 640.5,-205.99 633.5,-205.99"/>
</g>
<!-- AppRoutingModule -->
<g id="node9" class="node">
<title>AppRoutingModule</title>
<polygon fill="#8dd3c7" stroke="black" points="1256.27,-122 1253.27,-126 1232.27,-126 1229.27,-122 1127.73,-122 1127.73,-86 1256.27,-86 1256.27,-122"/>
<text text-anchor="middle" x="1192" y="-99.8" font-family="Times,serif" font-size="14.00">AppRoutingModule</text>
</g>
<!-- AppRoutingModule&#45;&gt;AppModule -->
<g id="edge8" class="edge">
<title>AppRoutingModule&#45;&gt;AppModule</title>
<path fill="none" stroke="black" d="M1192,-122.29C1192,-144.21 1192,-178 1192,-178 1192,-178 688.72,-178 688.72,-178"/>
<polygon fill="black" stroke="black" points="688.72,-174.5 678.72,-178 688.72,-181.5 688.72,-174.5"/>
</g>
</g>
</svg>
